<?xml version="1.0" encoding="utf-8"?>
<!-- Generator: Adobe Illustrator 24.3.0, SVG Export Plug-In . SVG Version: 6.00 Build 0)  -->
<svg version="1.1" id="katman_1" xmlns="http://www.w3.org/2000/svg" xmlns:xlink="http://www.w3.org/1999/xlink" x="0px" y="0px"
	 viewBox="0 0 248.7 248.7" style="enable-background:new 0 0 248.7 248.7;" xml:space="preserve">
<style type="text/css">
	.st0{fill:#293946;}
</style>
<path class="st0" d="M164,195.4l-8.1,43.7c-0.1,0.5-0.6,0.9-1.1,0.8c-0.2,0-0.4-0.2-0.6-0.3l-29-33.7c-0.3-0.4-1-0.5-1.4-0.1
	c0,0-0.1,0.1-0.1,0.1l-28.9,33.6c-0.4,0.4-1,0.5-1.4,0.1c-0.2-0.1-0.3-0.3-0.3-0.6l-8.2-43.6c-0.1-0.5-0.6-0.9-1.2-0.8
	c-0.1,0-0.1,0-0.2,0l-41.9,14.5c-0.5,0.2-1.1-0.1-1.2-0.6c-0.1-0.2-0.1-0.4,0-0.6l14.6-41.8c0.2-0.5-0.1-1.1-0.6-1.2
	c0,0-0.1,0-0.1,0L10,156.6c-0.5-0.1-0.9-0.6-0.8-1.2c0-0.2,0.2-0.4,0.3-0.6l34-29.1c0.4-0.3,0.5-1,0.1-1.4c0,0-0.1-0.1-0.1-0.1
	L9.4,95.1c-0.4-0.4-0.5-1-0.1-1.4c0.1-0.2,0.3-0.3,0.6-0.3l44.3-8.2c0.5-0.1,0.9-0.6,0.8-1.2c0,0,0-0.1,0-0.1L40.2,42
	c-0.2-0.5,0.1-1.1,0.6-1.3c0.2-0.1,0.5-0.1,0.7,0l41.9,14.6c0.5,0.2,1.1-0.1,1.3-0.6c0-0.1,0-0.1,0-0.2L93,11
	c0.1-0.5,0.6-0.9,1.2-0.8c0.2,0,0.4,0.2,0.6,0.3l28.9,33.6c0.3,0.4,1,0.5,1.4,0.1c0,0,0.1-0.1,0.1-0.1l28.9-33.7
	c0.4-0.4,1-0.5,1.4-0.1c0.2,0.1,0.3,0.3,0.3,0.6l8.3,43.7c0.1,0.5,0.6,0.9,1.2,0.8c0.1,0,0.1,0,0.2,0l41.8-14.6
	c0.5-0.2,1.1,0.1,1.2,0.6c0.1,0.2,0.1,0.4,0,0.6l-14.6,41.8c-0.2,0.5,0.1,1.1,0.6,1.3c0.1,0,0.1,0,0.2,0l44.2,8.2
	c0.5,0.1,0.9,0.6,0.8,1.2c0,0.2-0.2,0.4-0.3,0.6l-34.1,29.1c-0.4,0.3-0.5,1-0.1,1.4c0,0,0.1,0.1,0.1,0.1l34.1,29.1
	c0.4,0.4,0.5,1,0.1,1.4c-0.1,0.2-0.3,0.3-0.6,0.3l-44.3,8.1c-0.5,0.1-0.9,0.6-0.8,1.2c0,0,0,0.1,0,0.1l14.9,42
	c0.2,0.5-0.1,1.1-0.6,1.3c-0.2,0.1-0.5,0.1-0.7,0l-42.2-14.8c-0.5-0.2-1.1,0.1-1.3,0.6C164,195.3,164,195.3,164,195.4z"/>
</svg>
